<?xml version="1.0" encoding="UTF-8"?>
<svg id="Layer_1" data-name="Layer 1" xmlns="http://www.w3.org/2000/svg" viewBox="0 0 33.13 46.62">
  <path d="M15.41,46.58c.21-.08,5.02-3.61,2.14-6.82s-2.97-3.91-1.45-5.61c0,0-.35-.99-3.11-2.06-2.76-1.07-4.31-1.73-4.65-2.13,0,0,.38,2.06-1.19,2.57-1.58,.51-3.56,.06-4.19,.58-.63,.51-1.07,.73-1.01,2.2,0,0-1.13-2.76,2.48-6.14,.96-.68,2.07-.51,2.86-.34,0,0-.32-.73-.43-.96s-5.13-6.84-.06-14.19c0,0-2.99,1.51-3.38-2.55-.17-.85-.98-3.03-3.4-2.28,0,0,2.02-1.55,5.8,.32,.72,.36,2.21,1.53,1.85,3.32,0,0,2.93-3.4,7.89-3.78,0,0-4.4-.21-5.93-1.13-1.53-.91-1.49-1.87,.98-2.81,0,0-.47,.72-.34,1.02,.13,.3,1.62,1.04,4.53,1.04,0,0-1.91-1.42-1.57-3.55C13.54,1.15,14.86-.04,16.52,0c0,0,3.13,.04,3.41,3.46,.08,1.77-.88,2.88-1.65,3.39,0,0,3.07-.18,3.7-.57,.62-.39,1.52-.62,.38-1.44,0,0,2.35,.44,2.14,1.62-.39,1.67-2.91,2.08-7.21,2.21,0,0,5.1,.44,7.96,3.84,0,0-.49-2.93,3.39-3.78,3.88-.85,4.5,.49,4.5,.49,0,0-2.81-1-3.22,1.41s-1.31,3.11-2.21,3.4c0,0-.99,.19-1.42-.21,0,0,1.76,1.87,2.11,6.41,.36,4.54-2.22,7.6-2.25,7.22-.03-.38,1.67-3.33,.82-7.02-.85-3.69-4.28-6.83-5.39-7.12,0,0,2.34,1.93-1.14,4.46,0,0-1.87,1.29-2.8,1.46,0,0,4.48,.34,5.08,2.07,.06,.34,0,.91-.35,1.14-.35,.23-1.11,.6-1.11,.6,0,0,1.46,.67,.67,2.57-.26,.55-.91,1.46-1.85,1.74,0,0,1.31-1.1,1.37-2.14,.05-.88-1.02-1.67-1.51-1.77-1.07-.22-1.16,.22-1.18,.33,.03,.48-.77,1.43-1.45,2.12s-1.21,1.66-1.21,2.46,.18,1.47,.18,1.47c0,0-1.7-.78-1.38-2.67s1.44-3.52,1.83-3.77c0,0-3.72,.02-4.35,.44s-1.08,.94-.77,1.96,1.12,1.51,1.12,1.51c0,0-1.63,.04-1.97-2.56-.05-.81,.78-1.69,.78-1.69,0,0-1.03-.46-1.38-1.01-.25-.39,0-.88,.09-.98,.77-.88,2.83-1.67,5.36-1.82,0,0-4.61-1.58-4.82-3.33s.26-2.34,.46-2.47-3.27,1.76-4.83,5.54c-.65,1.75-.75,3.75-.5,5.34,.29,1.86,1.02,3.17,1.06,3.23,0,0-.11-2.37,1.21-4.04,0,0-.37,2.02,.31,3.39,.68,1.37,2.4,2.1,4.87,3.05,1.45,.71,2.78,1.55,2.99,2.78,0,0,.35-1.64,1.69-2.34s5.24-2.26,5.67-2.85c.44-.59,1.69-1.47,.8-3.95,0,0,1.35,.7,1.58,2.18s-.03,2.55-.35,3.04c0,0,1.19-.44,2.24,.01,1.05,.45,2.75,2.15,3.1,4.02s.24,2.48,.16,2.69c0,0-.19-1.66-.41-1.79s-.29-.83-1.96-.95c-1.66-.11-2.3,.02-3-.16s-1.58-1.17-1-2.81c0,0-2.18,1.58-4.06,1.83-1.21,.44-3.31,1.4-4,3.06-.23,.68,.18,1.13,.18,1.13,0,0,2.57,2.54,2.9,3.07,.33,.53,1.77,2.15,.52,4.7-.44,.84-1.37,1.48-1.73,1.75s-1.52,.85-1.9,1.03c-.48,.23-1.56,.27-1.35,.19h0Zm-3.97-24.46c.85,0,4.6-1.93,4.6-1.93,0,0-1.43-.08-2.34,.07s-2.88,.34-2.99,1.06c-.06,.35-.11,.8,.73,.81h0Zm4.94-3.13s3.71-2.1,4.02-3.35c.31-1.25-.72-1.81-1.54-1.25s-.53,1.15-.41,1.42,1,.56,1,.56c0,0-1.32,.16-1.77-.08s-.86-1.18-.82-1.78,.12-1.68,2.55-2.04c-.67-.36-4-.52-5.62,0,0,0,2.53,.37,2.32,2.37-.17,1.12-.51,1.53-1.08,1.59s-1.25-.1-1.25-.1c0,0,.67-.3,.75-.76s.02-1.16-.75-1.41-1.05,.33-1.17,.52-.19,.69,0,1.1,3.57,3.19,3.76,3.22h0Zm4.52,3.52c.67,0,.74-.24,.77-.39s-.04-.64-.4-.81-1.62-1-5.06-.78c.13,.21,3.95,2.06,4.69,1.98Z"/>
</svg>