<?xml version="1.0" encoding="UTF-8"?>
<svg id="Layer_1" data-name="Layer 1" xmlns="http://www.w3.org/2000/svg" viewBox="0 0 329.18 463.2">
  <path d="M153.12,462.81c2.1-.8,49.84-35.84,21.28-67.76-28.56-31.92-29.53-38.9-14.41-55.7,0,0-3.51-9.82-30.95-20.46-27.44-10.64-42.8-17.23-46.16-21.15,0,0,3.81,20.48-11.87,25.52-15.68,5.04-35.41,.64-41.65,5.72-6.24,5.08-10.64,7.28-10.08,21.84,0,0-11.2-27.44,24.64-61.04,9.52-6.72,20.55-5.02,28.39-3.34,0,0-3.19-7.3-4.31-9.54s-50.95-68.01-.61-140.96c0,0-29.68,14.99-33.6-25.33-1.68-8.4-9.71-30.09-33.79-22.7,0,0,20.07-15.42,57.67,3.17,7.18,3.59,21.97,15.21,18.38,32.96,0,0,29.15-33.8,78.38-37.6,0,0-43.73-2.11-58.94-11.2-15.21-9.08-14.79-18.59,9.72-27.89,0,0-4.65,7.18-3.38,10.14,1.27,2.96,16.06,10.35,45,10.35,0,0-19.01-14.15-15.63-35.28C134.57,11.42,147.67-.41,164.15,.01c0,0,31.13,.38,33.89,34.34,.81,17.55-8.78,28.6-16.41,33.64,0,0,30.55-1.79,36.73-5.69,6.18-3.9,15.11-6.18,3.74-14.3,0,0,23.4,4.39,21.29,16.09-3.9,16.58-28.93,20.64-71.66,21.94,0,0,50.7,4.39,79.14,38.19,0,0-4.88-29.09,33.64-37.54,38.51-8.45,44.69,4.88,44.69,4.88,0,0-27.95-9.91-32.01,13.98-4.06,23.89-13,30.88-21.94,33.8,0,0-9.86,1.87-14.1-2.11,0,0,17.46,18.61,21.01,63.73,3.55,45.11-22.09,75.51-22.35,71.79-.26-3.73,16.55-33.09,8.1-69.79-8.45-36.7-42.52-67.86-53.59-70.77,0,0,23.3,19.22-11.36,44.27,0,0-18.63,12.83-27.8,14.53,0,0,44.55,3.33,50.47,20.53,.57,3.41,0,9.05-3.5,11.33-3.49,2.27-11.03,5.96-11.03,5.96,0,0,14.55,6.62,6.61,25.57-2.58,5.49-9.05,14.51-18.43,17.32,0,0,13.05-10.91,13.61-21.3,.46-8.71-10.15-16.6-15.02-17.58-10.68-2.16-11.51,2.22-11.72,3.3,.32,4.75-7.7,14.17-14.39,21.07-6.69,6.9-12.05,16.45-12.05,24.43s1.8,14.62,1.8,14.62c0,0-16.87-7.76-13.72-26.54,3.15-18.78,14.32-34.98,18.18-37.45,0,0-36.97,.22-43.27,4.39s-10.69,9.34-7.65,19.46c3.04,10.12,11.14,14.96,11.14,14.96,0,0-16.2,.39-19.57-25.42-.45-8.04,7.78-16.77,7.78-16.77,0,0-10.21-4.59-13.75-10.05-2.49-3.84,.05-8.78,.91-9.77,7.65-8.79,28.11-16.63,53.3-18.06,0,0-45.81-15.74-47.91-33.06s2.57-23.3,4.61-24.52-32.52,17.48-47.96,55.01c-6.42,17.39-7.46,37.31-4.98,53.04,2.91,18.48,10.1,31.46,10.53,32.05,0,0-1.07-23.56,12.07-40.1,0,0-3.63,20.08,3.1,33.73,6.74,13.65,23.84,20.87,48.37,30.35,14.36,7.05,27.64,15.45,29.67,27.64,0,0,3.52-16.26,16.8-23.3s52.03-22.49,56.36-28.32c4.34-5.83,16.8-14.63,7.99-39.29,0,0,13.43,6.97,15.72,21.68,2.29,14.71-.27,25.34-3.52,30.21,0,0,11.79-4.34,22.22,.14,10.43,4.47,27.37,21.41,30.76,39.97s2.41,24.67,1.59,26.7c0,0-1.9-16.54-4.12-17.78-2.22-1.24-2.91-8.27-19.43-9.4-16.52-1.14-22.82,.21-29.84-1.55s-15.69-11.62-9.91-27.88c0,0-21.66,15.71-40.36,18.19-11.98,4.38-32.87,13.88-39.73,30.38-2.29,6.72,1.75,11.25,1.75,11.25,0,0,25.55,25.24,28.85,30.52,3.3,5.29,17.6,21.34,5.19,46.75-4.38,8.33-13.59,14.75-17.24,17.38s-15.08,8.44-18.87,10.21c-4.81,2.32-15.54,2.65-13.44,1.85Zm-39.47-242.99c8.43,.02,45.74-19.18,45.74-19.18,0,0-14.25-.77-23.28,.66s-28.6,3.4-29.76,10.51c-.62,3.46-1.12,7.98,7.3,8Zm49.07-31.12s36.86-20.85,39.93-33.32c3.07-12.47-7.19-18.02-15.35-12.44s-5.3,11.44-4.12,14.09,9.95,5.56,9.95,5.56c0,0-13.12,1.63-17.55-.77s-8.52-11.75-8.15-17.72,1.24-16.74,25.35-20.28c-6.61-3.54-39.74-5.21-55.84,0,0,0,25.1,3.69,23.08,23.55-1.68,11.12-5.07,15.22-10.7,15.82s-12.38-1.02-12.38-1.02c0,0,6.68-3.01,7.45-7.57s.19-11.51-7.45-14.03-10.48,3.32-11.63,5.21-1.85,6.84,0,10.89,35.46,31.74,37.41,32.02Zm44.91,34.98c6.68,.02,7.31-2.34,7.66-3.87s-.43-6.35-3.96-8.08-16.08-9.97-50.26-7.77c1.25,2.13,39.23,20.45,46.56,19.72Zm92.06-61.02"/>
</svg>